<mxfile host="app.diagrams.net" modified="2022-05-02T08:04:50.963Z" agent="5.0 (Macintosh; Intel Mac OS X 10_15_7) AppleWebKit/537.36 (KHTML, like Gecko) Chrome/101.0.4951.41 Safari/537.36" etag="PVH6lHQFsZZs6lmUvroc" version="17.5.0" type="github">
  <diagram id="ilKv_Bq0BxWvrc01BLs_" name="Page-1">
    <mxGraphModel dx="501" dy="341" grid="1" gridSize="10" guides="1" tooltips="1" connect="1" arrows="1" fold="1" page="1" pageScale="1" pageWidth="827" pageHeight="1169" math="0" shadow="0">
      <root>
        <mxCell id="0" />
        <mxCell id="1" parent="0" />
        <mxCell id="sYUQP4oFHnAJntB-MVc2-1" value="" style="ellipse;whiteSpace=wrap;html=1;aspect=fixed;fillColor=#AAFFFF;" vertex="1" parent="1">
          <mxGeometry x="120" y="80" width="80" height="80" as="geometry" />
        </mxCell>
        <mxCell id="sYUQP4oFHnAJntB-MVc2-2" value="" style="ellipse;whiteSpace=wrap;html=1;aspect=fixed;fillColor=#AAFFFF;" vertex="1" parent="1">
          <mxGeometry x="280" y="80" width="80" height="80" as="geometry" />
        </mxCell>
        <mxCell id="sYUQP4oFHnAJntB-MVc2-3" value="" style="endArrow=none;html=1;rounded=0;exitX=1;exitY=0.5;exitDx=0;exitDy=0;entryX=0;entryY=0.5;entryDx=0;entryDy=0;" edge="1" parent="1" source="sYUQP4oFHnAJntB-MVc2-1" target="sYUQP4oFHnAJntB-MVc2-2">
          <mxGeometry width="50" height="50" relative="1" as="geometry">
            <mxPoint x="240" y="210" as="sourcePoint" />
            <mxPoint x="290" y="160" as="targetPoint" />
          </mxGeometry>
        </mxCell>
        <mxCell id="sYUQP4oFHnAJntB-MVc2-5" value="" style="ellipse;whiteSpace=wrap;html=1;aspect=fixed;fillColor=#AAFFFF;" vertex="1" parent="1">
          <mxGeometry x="120" y="240" width="80" height="80" as="geometry" />
        </mxCell>
        <mxCell id="sYUQP4oFHnAJntB-MVc2-6" value="" style="ellipse;whiteSpace=wrap;html=1;aspect=fixed;fillColor=#AAFFFF;" vertex="1" parent="1">
          <mxGeometry x="280" y="240" width="80" height="80" as="geometry" />
        </mxCell>
        <mxCell id="sYUQP4oFHnAJntB-MVc2-8" value="" style="curved=1;endArrow=none;html=1;rounded=0;exitX=1;exitY=1;exitDx=0;exitDy=0;entryX=0;entryY=1;entryDx=0;entryDy=0;endFill=0;" edge="1" parent="1" source="sYUQP4oFHnAJntB-MVc2-5" target="sYUQP4oFHnAJntB-MVc2-6">
          <mxGeometry width="50" height="50" relative="1" as="geometry">
            <mxPoint x="200" y="380" as="sourcePoint" />
            <mxPoint x="300" y="350" as="targetPoint" />
            <Array as="points">
              <mxPoint x="240" y="360" />
            </Array>
          </mxGeometry>
        </mxCell>
        <mxCell id="sYUQP4oFHnAJntB-MVc2-9" value="" style="curved=1;endArrow=none;html=1;rounded=0;exitX=1;exitY=0;exitDx=0;exitDy=0;endFill=0;" edge="1" parent="1" source="sYUQP4oFHnAJntB-MVc2-5" target="sYUQP4oFHnAJntB-MVc2-6">
          <mxGeometry width="50" height="50" relative="1" as="geometry">
            <mxPoint x="198.2842712474619" y="318.2842712474619" as="sourcePoint" />
            <mxPoint x="301.7157287525381" y="318.2842712474619" as="targetPoint" />
            <Array as="points">
              <mxPoint x="240" y="200" />
            </Array>
          </mxGeometry>
        </mxCell>
        <mxCell id="sYUQP4oFHnAJntB-MVc2-10" value="i" style="text;html=1;strokeColor=none;fillColor=none;align=center;verticalAlign=middle;whiteSpace=wrap;rounded=0;fontFamily=Bentham;fontStyle=2;fontSize=16;fontSource=https%3A%2F%2Ffonts.googleapis.com%2Fcss%3Ffamily%3DBentham;" vertex="1" parent="1">
          <mxGeometry x="210" y="90" width="60" height="30" as="geometry" />
        </mxCell>
        <mxCell id="sYUQP4oFHnAJntB-MVc2-11" value="i" style="text;html=1;strokeColor=none;fillColor=none;align=center;verticalAlign=middle;whiteSpace=wrap;rounded=0;fontFamily=Bentham;fontStyle=2;fontSize=16;" vertex="1" parent="1">
          <mxGeometry x="210" y="190" width="60" height="30" as="geometry" />
        </mxCell>
        <mxCell id="sYUQP4oFHnAJntB-MVc2-12" value="j" style="text;html=1;strokeColor=none;fillColor=none;align=center;verticalAlign=middle;whiteSpace=wrap;rounded=0;fontFamily=Bentham;fontStyle=2;fontSize=16;fontSource=https%3A%2F%2Ffonts.googleapis.com%2Fcss%3Ffamily%3DBentham;" vertex="1" parent="1">
          <mxGeometry x="210" y="340" width="60" height="30" as="geometry" />
        </mxCell>
      </root>
    </mxGraphModel>
  </diagram>
</mxfile>
